File Name

ExTerminators 2009 BRRip H264 LKRG-Wrath.mp4

File Size
Format : MPEG-4
Format profile : Base Media
Codec ID : isom
File size : 2.02 GiB
Duration : 1h 32mn
Overall bit rate : 3 138 Kbps

Video
ID : 1
Format : AVC
Format/Info : Advanced Video Codec
Format profile : High@L4.1
Format settings, CABAC : Yes
Format settings, ReFrames : 3 frames
Codec ID : avc1
Codec ID/Info : Advanced Video Coding
Duration : 1h 31mn
Bit rate mode : Variable
Bit rate : 2 565 Kbps
Nominal bit rate : 2 933 Kbps
Maximum bit rate : 18.7 Mbps
Width : 1 280 pixels
Height : 688 pixels
Display aspect ratio : 1.860
Frame rate mode : Constant
Frame rate : 23.976 fps
Resolution : 24 bits
Colorimetry : 4:2:0
Scan type : Progressive
Bits/(Pixel*Frame) : 0.121
Stream size : 1.64 GiB (81%)

Audio #1
ID : 2
Format : AAC
Format/Info : Advanced Audio Codec
Format version : Version 4
Format profile : LC
Format settings, SBR : No
Codec ID : 40
Duration : 1h 32mn
Bit rate mode : Variable
Bit rate : 128 Kbps
Maximum bit rate : 140 Kbps
Channel(s) : 2 channels
Channel positions : L R
Sampling rate : 48.0 KHz
Resolution : 16 bits
Stream size : 84.3 MiB (4%)

Audio #2
ID : 3
Format : AAC
Format/Info : Advanced Audio Codec
Format version : Version 4
Format profile : LC
Format settings, SBR : No
Codec ID : 40
Duration : 1h 32mn
Bit rate mode : Variable
Bit rate : 448 Kbps
Maximum bit rate : 462 Kbps
Channel(s) : 6 channels
Channel positions : Front: L C R, Rear: L R, LFE
Sampling rate : 48.0 KHz
Resolution : 16 bits
Stream size : 295 MiB (14%)

English SRT : N/A

Language : English

 
http://www.imdb.com/title/tt1209378/

Release Date: May 2010 (USA) 

Genre: Comedy | Drama 

Plot: Three women who meet in an anger-management class decide to form a traditional business with very untraditional methods. 

Cast: 
Heather Graham ... Alex
Jennifer Coolidge ... Stella
Matthew Settle ... Dan
Amber Heard ... Nikki
Joey Lauren Adams ... Kim
Sam Lloyd ... Hutt
Farah White ... Marsha
Drena De Niro ... Dr. Press
Glenn Morshower ... Boss
Kathy Lamkin ... Land Lady
Charlie Robison ... Rick
Andy Buckley ... Steven Cantor
Jeff Schwan ... Detective Pete
Eloise DeJoria ... Danielle
Blaine Gray ... Tom


Screenshots
 
http://postimg.com/image/17000/16289.jpg
 
http://postimg.com/image/17000/16290.jpg